<svg t="1646896360716" class="icon" viewBox="0 0 1024 1024" version="1.1" xmlns="http://www.w3.org/2000/svg" p-id="2701" width="128" height="128"><path d="M572.5 401.4c-15.6 14.7-16.2 39.3-1.5 54.8 16.4 17.4 25.1 40.2 24.4 64.4-0.7 24.1-10.6 46.5-28 62.9L327.6 810.3c-17.4 16.4-39.6 24.6-61.8 24.6-23.9 0-47.7-9.4-65.4-28.1-16.4-17.4-25.1-40.2-24.4-64.4 0.7-24.1 10.6-46.5 28-62.9l102.3-96.8c15.6-14.7 16.2-39.3 1.5-54.8-14.7-15.6-39.3-16.2-54.8-1.5l-102.3 96.8c-32.4 30.7-51 72.3-52.2 117.1-1.2 44.9 15 87.4 45.6 119.8 32.9 34.8 77.3 52.3 121.8 52.3 41.4 0 82.8-15.2 115.1-45.8l239.8-226.9c32.4-30.7 51-72.3 52.2-117.1s-15-87.4-45.6-119.8c-14.8-15.5-39.4-16.2-54.9-1.4z" p-id="2702" fill="currentColor"></path><path d="M880 163.8c-30.7-32.4-72.3-51-117.1-52.2-44.7-1.2-87.2 14.9-119.6 45.4L403.8 375.9l-0.5 0.5c-32.4 30.7-51 72.3-52.2 117.1-1.2 44.9 15 87.4 45.6 119.8 7.6 8.1 17.9 12.1 28.2 12.1 9.6 0 19.2-3.5 26.7-10.6 15.6-14.7 16.2-39.3 1.5-54.8-16.4-17.4-25.1-40.2-24.4-64.3 0.7-24 10.5-46.3 27.7-62.7l239.5-218.8 0.5-0.5c17.4-16.4 40.2-25.1 64.4-24.4 24.1 0.7 46.5 10.6 62.9 28s25.1 40.2 24.4 64.3c-0.7 24.1-10.6 46.5-28 62.9l-83.9 79.4c-15.6 14.7-16.2 39.3-1.5 54.8 14.7 15.6 39.3 16.2 54.8 1.5l83.9-79.4c32.4-30.7 51-72.3 52.2-117.1 1.3-44.9-14.9-87.4-45.6-119.9z" p-id="2703" fill="currentColor"></path></svg>