<svg class="icon" viewBox="0 0 1024 1024" version="1.1" xmlns="http://www.w3.org/2000/svg" width="128" height="128"><path d="M170.666667 981.333333a85.426667 85.426667 0 0 1-85.333334-85.333333 21.333333 21.333333 0 0 1 42.666667 0 42.666667 42.666667 0 1 0 42.666667-42.666667 21.333333 21.333333 0 0 1 0-42.666666 42.666667 42.666667 0 1 0-42.666667-42.666667 21.333333 21.333333 0 0 1-42.666667 0 85.333333 85.333333 0 1 1 141.72 64A85.3 85.3 0 0 1 170.666667 981.333333z m746.666666-85.333333H362.666667a21.333333 21.333333 0 0 1 0-42.666667h554.666666a21.333333 21.333333 0 0 1 0 42.666667zM234.666667 640H106.666667a21.333333 21.333333 0 0 1-21.333334-21.333333c0-21.153333 8.713333-42.966667 25.193334-63.093334 13.113333-16 30.846667-30.56 49.926666-40.966666 4-2.2 8.12-4.32 12.08-6.373334C200.9 493.533333 213.333333 485.413333 213.333333 469.333333a42.666667 42.666667 0 0 0-85.333333 0 21.333333 21.333333 0 0 1-42.666667 0 85.333333 85.333333 0 0 1 170.666667 0c0 19.853333-7.853333 37.06-23.333333 51.146667-11.873333 10.806667-26.42 18.346667-40.486667 25.633333-3.933333 2.04-7.653333 4-11.286667 5.946667-18.84 10.28-37.846667 27.333333-47.1 45.273333H234.666667a21.333333 21.333333 0 0 1 0 42.666667z m682.666666-85.333333H362.666667a21.333333 21.333333 0 0 1 0-42.666667h554.666666a21.333333 21.333333 0 0 1 0 42.666667zM192 298.666667a21.333333 21.333333 0 0 1-21.333333-21.333334V128h-21.333334a21.333333 21.333333 0 0 1 0-42.666667h42.666667a21.333333 21.333333 0 0 1 21.333333 21.333334v170.666666a21.333333 21.333333 0 0 1-21.333333 21.333334z m725.333333-85.333334H362.666667a21.333333 21.333333 0 0 1 0-42.666666h554.666666a21.333333 21.333333 0 0 1 0 42.666666z" fill="currentColor"></path></svg>