<svg viewBox="0 0 1024 1024" version="1.1" xmlns="http://www.w3.org/2000/svg"><path d="M580.87936 509.58336l373.30944-373.30944c18.8672-18.87232 18.8672-49.84832 0-68.72064l-2.048-2.048c-18.8672-18.8672-49.8432-18.8672-68.7104 0L510.11072 439.296 136.8064 65.35168c-18.87232-18.8672-49.84832-18.8672-68.72064 0l-2.04288 2.048a47.94368 47.94368 0 0 0 0 68.7104l373.30944 373.47328L66.048 882.8928c-18.8672 18.8672-18.8672 49.84832 0 68.71552l2.048 2.048c18.8672 18.8672 49.8432 18.8672 68.7104 0l373.31456-373.31456 373.30944 373.31456c18.87232 18.8672 49.84832 18.8672 68.72064 0l2.04288-2.048c18.87232-18.8672 18.87232-49.84832 0-68.71552l-373.30944-373.30944z" fill="currentColor"></path></svg>
