<svg t="1646896269129" class="icon" viewBox="0 0 1024 1024" version="1.1" xmlns="http://www.w3.org/2000/svg" p-id="2500" width="128" height="128"><path d="M917.333333 213.333333H320a21.333333 21.333333 0 0 1 0-42.666666h597.333333a21.333333 21.333333 0 0 1 0 42.666666z m21.333334 320a21.333333 21.333333 0 0 0-21.333334-21.333333H320a21.333333 21.333333 0 0 0 0 42.666667h597.333333a21.333333 21.333333 0 0 0 21.333334-21.333334z m0 341.333334a21.333333 21.333333 0 0 0-21.333334-21.333334H320a21.333333 21.333333 0 0 0 0 42.666667h597.333333a21.333333 21.333333 0 0 0 21.333334-21.333333zM149.333333 128a64 64 0 1 0 64 64 64 64 0 0 0-64-64z m0 341.333333a64 64 0 1 0 64 64 64 64 0 0 0-64-64z m0 341.333334a64 64 0 1 0 64 64 64 64 0 0 0-64-64z" fill="currentColor" p-id="2501"></path></svg>
