<svg viewBox="0 0 1024 1024" version="1.1" xmlns="http://www.w3.org/2000/svg" width="128" height="128"><path d="M122.88 171.52h778.24c-9.216 0-16.384-7.168-16.384-16.384v713.728c0-9.216 7.168-16.384 16.384-16.384H122.88c9.216 0 16.384 7.168 16.384 16.384V155.648c0 8.192-6.656 15.872-16.384 15.872z m-32.768 684.544c0 26.112 20.992 47.104 47.104 47.104h750.08c26.112 0 47.104-20.992 47.104-47.104V167.936c0-26.112-20.992-47.104-47.104-47.104H137.216c-26.112 0-47.104 20.992-47.104 47.104v688.128z" fill="currentColor"></path><path d="M644.608 550.912v-45.056l-83.968 56.32 83.968 56.32V573.44zM784.896 450.048v131.584h-140.288v-37.888H747.52V450.048zM250.368 394.24h323.584v56.32H250.368zM250.368 539.136h248.832v56.32H250.368zM250.368 249.856h510.976v56.32H250.368zM250.368 684.032h510.976v56.32H250.368z" fill="currentColor"></path></svg>
