<svg viewBox="0 0 1024 1024" version="1.1" xmlns="http://www.w3.org/2000/svg" width="128" height="128"><path d="M924.294737 121.263158H99.705263c-35.031579 0-64.673684 29.642105-64.673684 64.673684v654.821053c0 35.031579 29.642105 64.673684 64.673684 64.673684h824.589474c35.031579 0 64.673684-29.642105 64.673684-64.673684V185.936842c0-37.726316-29.642105-64.673684-64.673684-64.673684zM72.757895 838.063158V538.947368h447.326316c13.473684 0 26.947368 10.778947 26.947368 26.947369v301.810526H99.705263c-16.168421-2.694737-26.947368-13.473684-26.947368-29.642105z m878.48421 0c0 16.168421-10.778947 26.947368-26.947368 26.947368h-158.989474-2.694737-175.157894V565.894737c0-35.031579-29.642105-64.673684-64.673685-64.673684H72.757895V185.936842c0-16.168421 10.778947-26.947368 26.947368-26.947368h824.589474c13.473684 0 26.947368 10.778947 26.947368 26.947368v652.126316z" fill="currentColor"></path><path d="M865.010526 250.610526c-10.778947-10.778947-26.947368-18.863158-45.810526-18.863158h-97.010526c-10.778947 0-18.863158 8.084211-18.863158 18.863158s8.084211 18.863158 18.863158 18.863158h97.010526l-158.989474 158.989474c-8.084211 8.084211-8.084211 18.863158 0 26.947368 2.694737 2.694737 8.084211 5.389474 13.473685 5.389474s10.778947-2.694737 13.473684-5.389474l158.989473-158.989473v97.010526c0 10.778947 8.084211 18.863158 18.863158 18.863158 10.778947 0 18.863158-8.084211 18.863158-18.863158V296.421053c0-18.863158-5.389474-32.336842-18.863158-45.810527z" fill="currentColor"></path></svg>
