<svg viewBox="0 0 1024 1024" version="1.1" xmlns="http://www.w3.org/2000/svg" width="128" height="128"><path d="M794.285714 744.571429q-30.857143 5.142857-62.857143 5.142857-104 0-192.571428-51.428572T398.857143 558.285714t-51.428572-192.571428q0-109.714286 59.428572-204-114.857143 34.285714-187.714286 130.857143T146.285714 512q0 74.285714 29.142857 142t78 116.571429 116.571429 78 142 29.142857q82.285714 0 156.285714-35.142857T794.285714 744.571429z m116-48.571429q-53.714286 116-162 185.428571T512 950.857143q-89.142857 0-170.285714-34.857143t-140-93.714286-93.714286-140T73.142857 512q0-87.428571 32.857143-167.142857t89.142857-138T329.714286 112.857143 495.428571 73.714286q25.142857-1.142857 34.857143 22.285714 10.285714 23.428571-8.571428 41.142857-49.142857 44.571429-75.142857 103.714286T420.571429 365.714286q0 84.571429 41.714285 156t113.142857 113.142857 156 41.714286q67.428571 0 130.285715-29.142858 23.428571-10.285714 41.142857 7.428572 8 8 10 19.428571t-2.571429 21.714286z" fill="currentColor"></path></svg>
