<svg class="icon" viewBox="0 0 1024 1024" version="1.1" xmlns="http://www.w3.org/2000/svg" width="128" height="128"><path d="M463.4 160.1l-89.8 1.1c-87.5 0-155.1 23.4-200.9 73.4-63.1 68.9-60.1 160.1-59.2 174.8v413.7c0 22.1 17.9 40 40 40h272c22.1 0 40-17.9 40-40v-312c0-22.1-17.9-40-40-40h-240v-64.4l-0.2-1.7c-0.2-2.8-4.4-73.3 40.9-122.3 31.6-34.2 81.2-49.5 147.5-49.5l89.5-1.2c2.2 0 3.9-1.8 3.9-4l0.1-64c0.2-2.1-1.6-3.9-3.8-3.9z m-69.9 383.1v248h-208v-248h208zM820.6 233.3l88.5-1.1c2.2 0 3.9-1.8 3.9-4V164c0-2.2-1.8-4-4-4l-88.7-0.7c-87.5 0-155.1 25.4-200.9 75.4-63.1 68.9-60.1 160.1-59.2 174.8v413.7c0 22.1 17.9 40 40 40h272c22.1 0 40-17.9 40-40v-312c0-22.1-17.9-40-40-40h-240v-64.4l-0.2-1.7c-0.2-2.9-4.4-73.3 40.9-122.3 31.7-34.2 81.3-49.5 147.7-49.5z m19.7 309.9v248h-208v-248h208z" fill="currentColor"></path></svg>