<svg viewBox="0 0 1024 1024" version="1.1" xmlns="http://www.w3.org/2000/svg" width="128" height="128"><path d="M512 428.9c45.8 0 83.1 37.2 83.1 83.1 0 45.8-37.3 83.1-83.1 83.1s-83.1-37.3-83.1-83.1c0-45.9 37.3-83.1 83.1-83.1m0-83.1c-91.8 0-166.2 74.4-166.2 166.2 0 91.8 74.4 166.2 166.2 166.2 91.8 0 166.2-74.4 166.2-166.2 0-91.8-74.4-166.2-166.2-166.2M512 262.7c-22.9 0-41.5-18.6-41.5-41.5v-83.1c0-23 18.6-41.5 41.5-41.5s41.5 18.6 41.5 41.5v83.1c0.1 22.9-18.5 41.5-41.5 41.5M717.7 347.9c-10.6 0-21.3-4-29.4-12.1-16.2-16.3-16.2-42.5 0-58.8l58.8-58.8c16.2-16.2 42.5-16.2 58.8 0 16.3 16.3 16.3 42.5 0 58.8l-58.8 58.8c-8.1 8-18.8 12.1-29.4 12.1M886 553.6h-83.1c-22.9 0-41.5-18.6-41.5-41.5s18.6-41.6 41.5-41.6H886c23 0 41.5 18.6 41.5 41.6 0 22.9-18.6 41.5-41.5 41.5M776.4 818c-10.6 0-21.3-4.1-29.4-12.2L688.2 747c-16.2-16.2-16.2-42.5 0-58.7 16.3-16.2 42.5-16.2 58.8 0l58.8 58.7c16.3 16.3 16.3 42.6 0 58.8-8.1 8.1-18.8 12.2-29.4 12.2M511.9 927.5c-23 0-41.5-18.6-41.5-41.5v-83.1c0-22.9 18.6-41.5 41.5-41.5s41.5 18.6 41.5 41.5V886c0.1 22.9-18.6 41.5-41.5 41.5M247.5 817.9c-10.6 0-21.3-4-29.4-12.1-16.2-16.3-16.2-42.6 0-58.8l58.8-58.8c16.2-16.2 42.5-16.2 58.8 0 16.2 16.3 16.2 42.5 0 58.8l-58.8 58.8c-8.1 8.1-18.8 12.1-29.4 12.1M221.1 553.4H138c-22.9 0-41.5-18.6-41.5-41.5 0-23 18.6-41.5 41.5-41.5h83.1c22.9 0 41.5 18.6 41.5 41.5 0.1 22.9-18.5 41.5-41.5 41.5M306.4 347.8c-10.6 0-21.3-4.1-29.4-12.2l-58.8-58.7a41.465 41.465 0 0 1 0-58.8c16.3-16.2 42.5-16.2 58.8 0l58.8 58.8c16.3 16.2 16.3 42.5 0 58.7-8.1 8.1-18.8 12.2-29.4 12.2" fill="currentColor"></path></svg>
