<svg viewBox="0 0 1024 1024" version="1.1" xmlns="http://www.w3.org/2000/svg" width="128" height="128"><path d="M132.608 204.288m-66.56 0a66.56 66.56 0 1 0 133.12 0 66.56 66.56 0 1 0-133.12 0Z" p-id="1307" fill="currentColor"></path><path d="M962.01728 158.80192l-680.68352 0.3584-0.04096 84.44928 680.7552-0.3584-0.03072-84.44928z" p-id="1308" fill="currentColor"></path><path d="M132.608 512m-66.56 0a66.56 66.56 0 1 0 133.12 0 66.56 66.56 0 1 0-133.12 0Z" p-id="1309" fill="currentColor"></path><path d="M281.33376 466.87232l-0.04096 84.44928 680.7552-0.3584-0.03072-84.44928-680.68352 0.3584z" p-id="1310" fill="currentColor"></path><path d="M132.608 819.712m-66.56 0a66.56 66.56 0 1 0 133.12 0 66.56 66.56 0 1 0-133.12 0Z" p-id="1311" fill="currentColor"></path><path d="M281.33376 775.59808l-0.04096 84.44928 680.7552-0.3584-0.03072-84.44928-680.68352 0.3584z" p-id="1312" fill="currentColor"></path></svg>